<svg xmlns="http://www.w3.org/2000/svg" viewBox="0 0 210.95 81.31">
  <defs>
    <style>
      .a {
        fill: #ff64a3;
      }
    </style>
  </defs>
  <title>アセット 1</title>
  <g>
    <path class="a" d="M4.45,39.06a38.84,38.84,0,0,1,6.56-11,32.4,32.4,0,0,1,4.54-4.53c1.23-1,2.83-1.9,4.39-1.41,2.59.81,3.69,4.47,4,6.92a48.84,48.84,0,0,1,0,8.72,28,28,0,0,1-1.84,9.24,10.34,10.34,0,0,1-2,3.13,5.6,5.6,0,0,1-1.31,1,7,7,0,0,1-.66.37c-.12.07-.81.38-.56.28s-.32.11-.39.13-.31.07-.46.12.55,0,0,0,.37.09.12,0,.52.36.29.16c.15.14.34.46.14.14.12.18.16.49.05.05s0,.37,0,.06c0-.14,0-.28,0-.42a3.49,3.49,0,0,1,0-.46c0-.12.08-.77,0-.42s.06-.31.08-.39.07-.39.11-.58c.11-.47.24-.94.37-1.41a68.68,68.68,0,0,1,5.44-12.74c.92-1.78,1.86-3.53,2.87-5.25A15.88,15.88,0,0,1,30,26.1c3.47-2.63,6.09,1.81,7.08,4.7a17.37,17.37,0,0,1,0,11.73c.11-.27-.16.36-.2.45-.13.27-.27.53-.41.79a16.56,16.56,0,0,1-1.19,1.92,9,9,0,0,1-1,1.16,3.26,3.26,0,0,1-.33.31s.25-.17.05,0l-.33.21c-.42.29-.06,0,0,0s-.79,0,.13,0c-.24,0-.16-.09.15,0,.1,0,.26.16.35.18s0-.09,0,0c.07.31-.24-.45-.15-.26a5.85,5.85,0,0,1-.38-1.42c-.35-2,.47-4,1.29-5.87,3.34-7.31,9.12-14,16.36-17.66,1.39-.71,3.13-1.2,4.47-.2a6.23,6.23,0,0,1,2,3.4,13.46,13.46,0,0,1,.44,4.29c0,.25-.05.51-.08.76s.09-.53,0,.08c0,.21-.07.41-.1.62a59,59,0,0,1-1.46,6.45c-.33,1.16-.7,2.3-1.13,3.43a14.22,14.22,0,0,1-1.26,2.66l-.34.54a2.83,2.83,0,0,0-.2.28c-.19.25.25-.3.05-.07s-.25.25-.37.39a1.9,1.9,0,0,1-.21.19c.25-.23.28-.06.08-.07s-.34.34,0,0c-.24.2-.49,0,0,0-.56,0,.34.07,0,0-.16,0-.1-.12,0,0,.33.35-.08-.16-.09-.08s-.17-.13.09.09a1.84,1.84,0,0,1-.25-.23c-.15-.16-.3-.31-.44-.48s.18.26,0,0c-.09-.13-.18-.25-.26-.39a2.08,2.08,0,0,1-.29-.56A5.71,5.71,0,0,1,52,40.67a21.25,21.25,0,0,1,3.71-7.76,44.45,44.45,0,0,1,5.72-6.68c.41-.39.83-.78,1.26-1.15l.54-.46.29-.23c-.44.34.17-.11.33-.22,1.42-1,3.25-2.05,5-1.28-.24-.1.39.26.47.32-.28-.22.21.22.28.3a3.41,3.41,0,0,1,.3.43l.16.29s.28.62.15.31a16.74,16.74,0,0,1,.9,3.9c.4,2.79.65,6,1.86,8.71a9.36,9.36,0,0,0,8.31,5.63c3.85.2,7.78-1.49,11-3.45,3.55-2.17,7-4.88,8.52-8.9a9.15,9.15,0,0,0-2.64-9.92c-2.89-2.43-6.63-1.9-9.56.19-5.12,3.63-8.23,11.06-6.3,17.2,2.39,7.64,11.25,9.29,18.12,7.54A28.58,28.58,0,0,0,111,39.9a29.05,29.05,0,0,0,8.31-9.67c1.79-3.71,2.31-8-.53-11.31a2.27,2.27,0,0,0-2.72-.35c-5.28,2.65-9.2,8.43-8.93,14.44.27,5.77,4.11,11.12,10,12.12s11.93-2,16.35-5.86a50.31,50.31,0,0,0,11.59-15,63.68,63.68,0,0,0,3.54-8.39,24.36,24.36,0,0,0,1.65-8.8c-.09-2.32-.74-5.26-2.92-6.53-1.81-1.07-3.93-.44-5.51.73a15.23,15.23,0,0,0-6.13,10.63c-.22,3.17.7,6.34,1.5,9.38.35,1.33.69,2.67.93,4s.19,2.94.35,4.41c.36,3.36,1.55,6.72,4.61,8.53a10.65,10.65,0,0,0,9.11.35,18.86,18.86,0,0,0,7.72-5.92c2.25-2.72,4.23-5.68,7-7.89a2.25,2.25,0,0,0,0-3.18,2.31,2.31,0,0,0-3.18,0c-4,3.15-6.17,8-10.16,11.13-2.8,2.19-8.08,3.75-10-.37-1-2.14-.68-4.6-1-6.86a72.78,72.78,0,0,0-1.77-7.84c-.55-2.26-1.12-4.78-.48-7.08,0-.11.32-.9.12-.44.12-.29.27-.58.42-.86a16.77,16.77,0,0,1,1.23-2A9.67,9.67,0,0,1,145,4.58c.53-.29-.16.17.09,0,0,0,.48-.38,0,0,.06,0,.25,0,.33,0-.79,0,.17.06-.23,0s-.13-.31-.15,0c0,0,.28.38,0,0a2.81,2.81,0,0,1,.42,1,12.7,12.7,0,0,1-.4,6.58,52.32,52.32,0,0,1-2.42,6.8A48.11,48.11,0,0,1,134.35,32c-3.23,3.64-7,7.09-11.85,8.41a9.1,9.1,0,0,1-7.07-.59,8.1,8.1,0,0,1-3.63-5.31c-1.14-5,2.15-9.86,6.49-12l-2.73-.35c2.47,2.9-1,7.72-2.91,9.93a29.33,29.33,0,0,1-10.31,8c-3.23,1.43-7.13,2.17-10.59,1.19a8.17,8.17,0,0,1-4.11-2.59,6.92,6.92,0,0,1-1.35-3.33,12.52,12.52,0,0,1,2.4-8.49c1.24-1.74,4.15-4.48,6.25-3.1,3,2,1.81,5.94-.23,8.11a22.69,22.69,0,0,1-10.4,6.12,7.8,7.8,0,0,1-4.78,0A5.07,5.07,0,0,1,76.91,35c-1.16-2.9-1.13-6-1.67-9s-1.78-6-4.72-7.27c-4-1.75-8.07.57-11.1,3.2a46.71,46.71,0,0,0-6.33,6.93,31,31,0,0,0-5,8.94c-.93,2.8-1.11,6.05.52,8.64,1.29,2.06,3.48,3.88,6,3,2.15-.74,3.46-2.95,4.36-4.89A43.24,43.24,0,0,0,61.56,37c1.26-5.11,2.18-10.56-.46-15.45a8.46,8.46,0,0,0-3.89-3.75,8.76,8.76,0,0,0-7.22.35A35.85,35.85,0,0,0,39.3,26.05a42,42,0,0,0-7.65,10.86c-1.91,3.92-3.73,9-1.13,13,2,3.11,5.48,1.84,7.5-.43a17.79,17.79,0,0,0,4.25-8.84,22.54,22.54,0,0,0-2.12-14.15c-2.16-4.12-6.46-7.19-11.12-5-4.46,2.06-7,7.53-9.17,11.68a82.82,82.82,0,0,0-6.14,14.14c-1,3.15-2,9.25,3,9.3,2.4,0,5-1.68,6.62-3.34A18.72,18.72,0,0,0,27.65,44a53.61,53.61,0,0,0,.9-10.35c0-3.54-.14-7-1.62-10.28-1.57-3.49-4.77-6.25-8.78-5.78-4.62.54-8.38,4.88-11.12,8.29a45.46,45.46,0,0,0-6.92,12,2.28,2.28,0,0,0,1.57,2.77,2.3,2.3,0,0,0,2.77-1.58Z"/>
    <path class="a" d="M127.84,22.44a113.33,113.33,0,0,1,14.93-6.68,147.89,147.89,0,0,1,15.74-5.2c2.81-.72,1.62-5.06-1.19-4.34a147.35,147.35,0,0,0-16.1,5.34,120.41,120.41,0,0,0-15.65,7c-2.53,1.41-.26,5.3,2.27,3.89Z"/>
    <path class="a" d="M157.8,49.4c-2.27-2.46-3.67-6.63-7.35-7.35-5-1-7.48,5.07-8.81,8.73a59.22,59.22,0,0,0-2.33,7.91c-.53,2.56-.69,5.27.5,7.67a7,7,0,0,0,5.65,4c2.4.16,4.55-1.31,6.07-3a40,40,0,0,0,8-15.52c.79-2.83-3.38-3.9-4.34-1.2C154,54,153,58,154.51,61.44A7.92,7.92,0,0,0,163,65.89a11.24,11.24,0,0,0,8.27-5.58c2-3.47,2.48-7.55,2.88-11.47a2.27,2.27,0,0,0-2.25-2.25,2.29,2.29,0,0,0-2.25,2.25c-.48,4.66-1.22,11.33-6.76,12.53-1.79.39-3.68-.17-4.38-2-.9-2.38.25-5.33,1.05-7.57l-4.34-1.2a38.43,38.43,0,0,1-4.85,10.77c-1.14,1.76-4.06,6.56-6.29,3.41-1-1.39-.75-3.33-.42-4.9a55.4,55.4,0,0,1,1.73-6.17,31,31,0,0,1,2-5,6.56,6.56,0,0,1,1.17-1.63,2.62,2.62,0,0,1,.6-.45,3.52,3.52,0,0,0,.39-.17c.12-.07.36,0,.11,0s0,0,.2.12a2,2,0,0,1,.48.39,10,10,0,0,1,1.29,1.54,41.42,41.42,0,0,0,3,4.08c2,2.14,5.14-1,3.18-3.18Z"/>
    <path class="a" d="M172.67,35.63c1.86-2,3.14-4.45,5.16-6.26,1.39-1.25,3.47-2.13,5-.67,2.89,2.81,3.15,8,2.12,11.61s-4.26,8.17-8.54,8.11a4.48,4.48,0,0,1-1.21-.18c-.3-.09-.56-.33-.27-.05-.15-.15-.3-.3-.44-.46.33.38-.21-.32-.3-.49a15.6,15.6,0,0,1-1.7-4,22.52,22.52,0,0,1-1-5.14c0-.37,0-.75,0-1.13,0-.18.13-1.12,0-.6a6.09,6.09,0,0,1,.22-.81c-.21.55,0,.21,0,.09,0,.09-.1.16-.33.32L168,34c-.65,6.37.46,12.95,2.1,19.09a74.79,74.79,0,0,0,8,19.33,41.21,41.21,0,0,0,6.37,8.25c2.08,2,5.26-1.16,3.18-3.18-4.26-4.15-7.21-9.56-9.57-15a71.45,71.45,0,0,1-5.38-18.94,41,41,0,0,1-.24-9.59,2.26,2.26,0,0,0-3.39-1.94c-3.35,2.25-2.12,7.8-1.3,11,.91,3.62,2.46,8.64,6.58,9.61,6.38,1.49,12.05-3.88,14.29-9.35,2.15-5.26,1.8-11.95-1.64-16.6a7.45,7.45,0,0,0-9.71-2.37c-3.56,1.72-5.2,5.35-7.8,8.09-2,2.1,1.18,5.29,3.18,3.18Z"/>
    <path class="a" d="M192,27.37c1.79-3.88,4.3-9.59,9.4-9.54,4.11,0,5,5.12,5.07,8.31a18.15,18.15,0,0,1-1,7.46A7.39,7.39,0,0,1,203.82,36a5,5,0,0,1-1.12.82c-.45.25-.93.26-1.37.47-.24.12.59.11.07,0s.36.2.11,0c-.1-.07-.22-.11-.33-.19s-.39-.25-.58-.39c.35.26-.35-.31-.49-.44a31.93,31.93,0,0,1-3.31-3.56,40.14,40.14,0,0,1-3.08-4.33c-.37-.61-.71-1.24-1-1.88-.19-.38,0,0,0,.06a3.89,3.89,0,0,1-.16-.44,1.8,1.8,0,0,0-.1-.33c-.22-.44,0,.43,0,.11l-4.42.6a142,142,0,0,0,6.1,15.55c2.32,5.38,4.77,10.71,7,16.14a38.09,38.09,0,0,0,1.52,3.8c1,1.88,3.23,3.25,5.24,2,2.44-1.54.19-5.44-2.27-3.89,1.23.39,1.58.35,1-.12a1.93,1.93,0,0,0-.19-.38s-.17-.49-.23-.64c-.25-.65-.5-1.3-.76-1.94-.6-1.48-1.22-2.94-1.84-4.4-1.36-3.18-2.76-6.34-4.15-9.51-2.54-5.83-5.26-11.68-7.08-17.78-.71-2.38-4.5-2-4.42.59a9.37,9.37,0,0,0,1.64,4.35,44,44,0,0,0,3.67,5.21,29.94,29.94,0,0,0,4,4.28c1.26,1.08,2.68,2.13,4.42,2a9.74,9.74,0,0,0,7.23-5c1.7-2.93,2-6.47,2-9.8,0-5.19-1.47-11.43-7-13.25-3.4-1.11-7.13.19-9.81,2.35-2.87,2.32-4.52,5.76-6,9a2.32,2.32,0,0,0,.81,3.08,2.27,2.27,0,0,0,3.08-.81Z"/>
  </g>
</svg>
